<svg width="260" height="260" viewBox="0 0 260 260" fill="none" xmlns="http://www.w3.org/2000/svg">
<g clip-path="url(#clip0_0_344)">
<path d="M259.5 130C259.5 201.521 201.521 259.5 130 259.5C58.4791 259.5 0.5 201.521 0.5 130C0.5 58.4791 58.4791 0.5 130 0.5C201.521 0.5 259.5 58.4791 259.5 130Z" stroke="#E1E5EE"/>
<path d="M260 130C260 58.203 201.797 0 130 0" stroke="#6E38F7"/>
<path d="M95.8863 105C95.6463 105 95.4423 104.916 95.2743 104.748C95.1063 104.58 95.0223 104.376 95.0223 104.136V102.264C95.0223 101.592 95.3223 101.028 95.9223 100.572L101.538 94.992C103.242 93.648 104.55 92.556 105.462 91.716C106.398 90.852 107.094 90.06 107.55 89.34C108.006 88.62 108.234 87.912 108.234 87.216C108.234 86.088 107.934 85.2 107.334 84.552C106.734 83.904 105.822 83.58 104.598 83.58C103.398 83.58 102.45 83.94 101.754 84.66C101.082 85.356 100.662 86.268 100.494 87.396C100.422 87.684 100.278 87.9 100.062 88.044C99.8703 88.164 99.6543 88.224 99.4143 88.224H96.1743C95.9583 88.224 95.7783 88.152 95.6343 88.008C95.4903 87.864 95.4183 87.684 95.4183 87.468C95.4663 86.052 95.8503 84.732 96.5703 83.508C97.3143 82.26 98.3703 81.264 99.7383 80.52C101.106 79.752 102.714 79.368 104.562 79.368C106.482 79.368 108.114 79.704 109.458 80.376C110.802 81.024 111.81 81.924 112.482 83.076C113.154 84.228 113.49 85.536 113.49 87C113.49 88.608 113.034 90.072 112.122 91.392C111.234 92.688 109.842 94.08 107.946 95.568L102.942 100.644H113.13C113.394 100.644 113.61 100.728 113.778 100.896C113.946 101.064 114.03 101.28 114.03 101.544V104.136C114.03 104.4 113.946 104.616 113.778 104.784C113.61 104.928 113.394 105 113.13 105H95.8863ZM127.247 105.36C125.231 105.36 123.455 104.976 121.919 104.208C120.407 103.44 119.231 102.384 118.391 101.04C117.575 99.696 117.167 98.184 117.167 96.504C117.167 94.392 118.103 92.064 119.975 89.52L126.527 80.52C126.719 80.28 126.899 80.1 127.067 79.98C127.235 79.86 127.475 79.8 127.787 79.8H131.207C131.423 79.8 131.591 79.884 131.711 80.052C131.855 80.196 131.927 80.376 131.927 80.592C131.927 80.76 131.879 80.916 131.783 81.06L126.743 88.008C127.127 87.912 127.631 87.864 128.255 87.864C129.863 87.888 131.339 88.284 132.683 89.052C134.051 89.796 135.131 90.816 135.923 92.112C136.739 93.408 137.147 94.848 137.147 96.432C137.147 98.064 136.739 99.564 135.923 100.932C135.131 102.276 133.979 103.356 132.467 104.172C130.979 104.964 129.239 105.36 127.247 105.36ZM127.175 101.184C128.519 101.184 129.659 100.776 130.595 99.96C131.531 99.12 131.999 97.968 131.999 96.504C131.999 95.064 131.531 93.936 130.595 93.12C129.683 92.28 128.543 91.86 127.175 91.86C125.831 91.86 124.691 92.28 123.755 93.12C122.843 93.936 122.387 95.064 122.387 96.504C122.387 97.968 122.843 99.12 123.755 99.96C124.691 100.776 125.831 101.184 127.175 101.184ZM145.244 92.472C143.66 92.472 142.388 92.052 141.428 91.212C140.492 90.372 139.976 89.232 139.88 87.792C139.856 87.384 139.844 86.844 139.844 86.172C139.844 85.452 139.856 84.876 139.88 84.444C139.976 82.956 140.48 81.78 141.392 80.916C142.304 80.052 143.588 79.62 145.244 79.62C146.9 79.62 148.184 80.052 149.096 80.916C150.032 81.78 150.548 82.956 150.644 84.444C150.692 85.308 150.716 85.884 150.716 86.172C150.716 86.436 150.692 86.976 150.644 87.792C150.548 89.232 150.02 90.372 149.06 91.212C148.124 92.052 146.852 92.472 145.244 92.472ZM142.328 105C142.088 105 141.896 104.94 141.752 104.82C141.608 104.676 141.536 104.496 141.536 104.28C141.536 104.136 141.584 104.004 141.68 103.884L159.428 80.484C159.62 80.244 159.8 80.076 159.968 79.98C160.136 79.86 160.376 79.8 160.688 79.8H162.596C162.836 79.8 163.016 79.872 163.136 80.016C163.28 80.136 163.352 80.304 163.352 80.52C163.352 80.664 163.304 80.796 163.208 80.916L145.46 104.316C145.268 104.556 145.088 104.736 144.92 104.856C144.752 104.952 144.524 105 144.236 105H142.328ZM145.244 89.772C145.94 89.772 146.444 89.568 146.756 89.16C147.092 88.752 147.296 88.236 147.368 87.612C147.416 86.796 147.44 86.292 147.44 86.1C147.44 85.836 147.416 85.344 147.368 84.624C147.32 84 147.128 83.484 146.792 83.076C146.456 82.644 145.94 82.428 145.244 82.428C144.572 82.428 144.068 82.644 143.732 83.076C143.396 83.484 143.204 84 143.156 84.624C143.132 84.984 143.12 85.476 143.12 86.1C143.12 86.7 143.132 87.204 143.156 87.612C143.204 88.212 143.384 88.728 143.696 89.16C144.032 89.568 144.548 89.772 145.244 89.772ZM159.644 105.216C158.06 105.216 156.788 104.784 155.828 103.92C154.892 103.032 154.376 101.856 154.28 100.392C154.256 99.984 154.244 99.444 154.244 98.772C154.244 98.076 154.256 97.512 154.28 97.08C154.376 95.592 154.88 94.416 155.792 93.552C156.704 92.688 157.988 92.256 159.644 92.256C161.324 92.256 162.62 92.688 163.532 93.552C164.444 94.416 164.948 95.592 165.044 97.08C165.092 97.944 165.116 98.508 165.116 98.772C165.116 99.036 165.092 99.576 165.044 100.392C164.948 101.856 164.42 103.032 163.46 103.92C162.524 104.784 161.252 105.216 159.644 105.216ZM159.644 102.408C160.364 102.408 160.88 102.204 161.192 101.796C161.528 101.364 161.72 100.848 161.768 100.248C161.816 99.432 161.84 98.916 161.84 98.7C161.84 98.46 161.816 97.98 161.768 97.26C161.72 96.636 161.528 96.12 161.192 95.712C160.856 95.28 160.34 95.064 159.644 95.064C158.972 95.064 158.468 95.28 158.132 95.712C157.796 96.12 157.604 96.636 157.556 97.26C157.532 97.62 157.52 98.1 157.52 98.7C157.52 99.324 157.532 99.84 157.556 100.248C157.604 100.848 157.784 101.364 158.096 101.796C158.432 102.204 158.948 102.408 159.644 102.408Z" fill="#363940"/>
<path d="M51.7756 140C51.669 140 51.5836 139.968 51.5196 139.904C51.4556 139.829 51.4236 139.739 51.4236 139.632V129.168C51.4236 129.061 51.4556 128.976 51.5196 128.912C51.5836 128.837 51.669 128.8 51.7756 128.8H52.5756C52.6823 128.8 52.7676 128.837 52.8316 128.912C52.8956 128.976 52.9276 129.061 52.9276 129.168V138.656H58.2716C58.389 138.656 58.4796 138.693 58.5436 138.768C58.6183 138.832 58.6556 138.917 58.6556 139.024V139.632C58.6556 139.739 58.6183 139.829 58.5436 139.904C58.469 139.968 58.3783 140 58.2716 140H51.7756ZM63.3085 140.16C62.2205 140.16 61.3512 139.824 60.7005 139.152C60.0498 138.469 59.6925 137.541 59.6285 136.368L59.6125 135.824L59.6285 135.296C59.6925 134.144 60.0498 133.227 60.7005 132.544C61.3512 131.861 62.2205 131.52 63.3085 131.52C64.4818 131.52 65.3885 131.893 66.0285 132.64C66.6792 133.387 67.0045 134.4 67.0045 135.68V135.968C67.0045 136.075 66.9672 136.165 66.8925 136.24C66.8285 136.304 66.7432 136.336 66.6365 136.336H61.0845V136.48C61.1165 137.173 61.3298 137.765 61.7245 138.256C62.1192 138.747 62.6418 138.992 63.2925 138.992C63.7938 138.992 64.1992 138.896 64.5085 138.704C64.8285 138.501 65.0685 138.293 65.2285 138.08C65.3245 137.952 65.3992 137.877 65.4525 137.856C65.5058 137.824 65.5965 137.808 65.7245 137.808H66.4285C66.5245 137.808 66.6045 137.835 66.6685 137.888C66.7432 137.941 66.7805 138.011 66.7805 138.096C66.7805 138.331 66.6365 138.613 66.3485 138.944C66.0605 139.275 65.6498 139.563 65.1165 139.808C64.5938 140.043 63.9912 140.16 63.3085 140.16ZM65.5485 135.248V135.2C65.5485 134.453 65.3458 133.845 64.9405 133.376C64.5352 132.907 63.9912 132.672 63.3085 132.672C62.6152 132.672 62.0712 132.907 61.6765 133.376C61.2818 133.845 61.0845 134.453 61.0845 135.2V135.248H65.5485ZM71.254 140.16C70.7313 140.16 70.246 140.053 69.798 139.84C69.3607 139.627 69.0087 139.339 68.742 138.976C68.486 138.603 68.358 138.192 68.358 137.744C68.358 137.04 68.646 136.464 69.222 136.016C69.798 135.568 70.582 135.269 71.574 135.12L73.974 134.784V134.32C73.974 133.221 73.3393 132.672 72.07 132.672C71.5793 132.672 71.1847 132.773 70.886 132.976C70.5873 133.168 70.3687 133.397 70.23 133.664C70.1873 133.771 70.1393 133.845 70.086 133.888C70.0433 133.92 69.9793 133.936 69.894 133.936H69.27C69.174 133.936 69.0887 133.904 69.014 133.84C68.95 133.765 68.918 133.68 68.918 133.584C68.918 133.339 69.03 133.056 69.254 132.736C69.4887 132.405 69.846 132.123 70.326 131.888C70.806 131.643 71.3927 131.52 72.086 131.52C73.2807 131.52 74.134 131.797 74.646 132.352C75.1687 132.907 75.43 133.6 75.43 134.432V139.632C75.43 139.739 75.3927 139.829 75.318 139.904C75.254 139.968 75.1687 140 75.062 140H74.358C74.2513 140 74.166 139.968 74.102 139.904C74.038 139.829 74.006 139.739 74.006 139.632V138.928C73.7713 139.28 73.43 139.573 72.982 139.808C72.534 140.043 71.958 140.16 71.254 140.16ZM71.574 138.992C72.278 138.992 72.854 138.763 73.302 138.304C73.75 137.845 73.974 137.179 73.974 136.304V135.856L72.102 136.128C71.334 136.235 70.7527 136.416 70.358 136.672C69.9633 136.928 69.766 137.248 69.766 137.632C69.766 138.069 69.942 138.405 70.294 138.64C70.6567 138.875 71.0833 138.992 71.574 138.992ZM78.1149 140C78.0082 140 77.9175 139.968 77.8429 139.904C77.7789 139.829 77.7469 139.739 77.7469 139.632V132.064C77.7469 131.957 77.7789 131.867 77.8429 131.792C77.9175 131.717 78.0082 131.68 78.1149 131.68H78.7869C78.9042 131.68 78.9949 131.717 79.0589 131.792C79.1335 131.856 79.1709 131.947 79.1709 132.064V132.768C79.6082 132.043 80.3495 131.68 81.3949 131.68H82.0189C82.1362 131.68 82.2269 131.712 82.2909 131.776C82.3549 131.84 82.3869 131.931 82.3869 132.048V132.64C82.3869 132.747 82.3549 132.837 82.2909 132.912C82.2269 132.976 82.1362 133.008 82.0189 133.008H81.1069C80.5202 133.008 80.0562 133.179 79.7149 133.52C79.3842 133.861 79.2189 134.325 79.2189 134.912V139.632C79.2189 139.739 79.1815 139.829 79.1069 139.904C79.0322 139.968 78.9415 140 78.8349 140H78.1149ZM84.1305 140C84.0238 140 83.9332 139.968 83.8585 139.904C83.7945 139.829 83.7625 139.739 83.7625 139.632V132.048C83.7625 131.941 83.7945 131.856 83.8585 131.792C83.9332 131.717 84.0238 131.68 84.1305 131.68H84.8185C84.9358 131.68 85.0265 131.712 85.0905 131.776C85.1545 131.84 85.1865 131.931 85.1865 132.048V132.752C85.5065 132.357 85.8745 132.053 86.2905 131.84C86.7172 131.627 87.2452 131.52 87.8745 131.52C88.8985 131.52 89.6932 131.851 90.2585 132.512C90.8238 133.163 91.1065 134.027 91.1065 135.104V139.632C91.1065 139.739 91.0692 139.829 90.9945 139.904C90.9305 139.968 90.8452 140 90.7385 140H90.0025C89.8958 140 89.8052 139.968 89.7305 139.904C89.6665 139.829 89.6345 139.739 89.6345 139.632V135.2C89.6345 134.432 89.4478 133.835 89.0745 133.408C88.7012 132.981 88.1678 132.768 87.4745 132.768C86.7918 132.768 86.2478 132.987 85.8425 133.424C85.4372 133.851 85.2345 134.443 85.2345 135.2V139.632C85.2345 139.739 85.1972 139.829 85.1225 139.904C85.0585 139.968 84.9732 140 84.8665 140H84.1305ZM99.974 140C99.8673 140 99.7767 139.968 99.702 139.904C99.638 139.829 99.606 139.739 99.606 139.632V130.176H96.518C96.4113 130.176 96.3207 130.144 96.246 130.08C96.182 130.005 96.15 129.915 96.15 129.808V129.184C96.15 129.067 96.182 128.976 96.246 128.912C96.3207 128.837 96.4113 128.8 96.518 128.8H104.198C104.315 128.8 104.406 128.837 104.47 128.912C104.534 128.976 104.566 129.067 104.566 129.184V129.808C104.566 129.915 104.529 130.005 104.454 130.08C104.39 130.144 104.305 130.176 104.198 130.176H101.126V139.632C101.126 139.739 101.089 139.829 101.014 139.904C100.939 139.968 100.849 140 100.742 140H99.974ZM108.029 140.16C106.856 140.16 105.949 139.829 105.309 139.168C104.68 138.507 104.344 137.627 104.301 136.528L104.285 135.84L104.301 135.152C104.344 134.053 104.685 133.173 105.325 132.512C105.976 131.851 106.877 131.52 108.029 131.52C109.181 131.52 110.077 131.851 110.717 132.512C111.368 133.173 111.714 134.053 111.757 135.152C111.778 135.387 111.789 135.616 111.789 135.84C111.789 136.064 111.778 136.293 111.757 136.528C111.714 137.627 111.373 138.507 110.733 139.168C110.104 139.829 109.202 140.16 108.029 140.16ZM108.029 138.96C108.712 138.96 109.25 138.747 109.645 138.32C110.05 137.883 110.269 137.259 110.301 136.448C110.312 136.341 110.317 136.139 110.317 135.84C110.317 135.541 110.312 135.339 110.301 135.232C110.269 134.421 110.05 133.803 109.645 133.376C109.25 132.939 108.712 132.72 108.029 132.72C107.346 132.72 106.802 132.939 106.397 133.376C106.002 133.803 105.789 134.421 105.757 135.232L105.741 135.84L105.757 136.448C105.789 137.259 106.002 137.883 106.397 138.32C106.802 138.747 107.346 138.96 108.029 138.96ZM118.307 140C118.2 140 118.115 139.968 118.051 139.904C117.987 139.829 117.955 139.739 117.955 139.632V129.168C117.955 129.061 117.987 128.976 118.051 128.912C118.115 128.837 118.2 128.8 118.307 128.8H119.107C119.214 128.8 119.299 128.837 119.363 128.912C119.427 128.976 119.459 129.061 119.459 129.168V138.656H124.803C124.92 138.656 125.011 138.693 125.075 138.768C125.15 138.832 125.187 138.917 125.187 139.024V139.632C125.187 139.739 125.15 139.829 125.075 139.904C125 139.968 124.91 140 124.803 140H118.307ZM129.92 140.16C128.746 140.16 127.84 139.829 127.2 139.168C126.57 138.507 126.234 137.627 126.192 136.528L126.176 135.84L126.192 135.152C126.234 134.053 126.576 133.173 127.216 132.512C127.866 131.851 128.768 131.52 129.92 131.52C131.072 131.52 131.968 131.851 132.608 132.512C133.258 133.173 133.605 134.053 133.648 135.152C133.669 135.387 133.68 135.616 133.68 135.84C133.68 136.064 133.669 136.293 133.648 136.528C133.605 137.627 133.264 138.507 132.624 139.168C131.994 139.829 131.093 140.16 129.92 140.16ZM129.92 138.96C130.602 138.96 131.141 138.747 131.536 138.32C131.941 137.883 132.16 137.259 132.192 136.448C132.202 136.341 132.208 136.139 132.208 135.84C132.208 135.541 132.202 135.339 132.192 135.232C132.16 134.421 131.941 133.803 131.536 133.376C131.141 132.939 130.602 132.72 129.92 132.72C129.237 132.72 128.693 132.939 128.288 133.376C127.893 133.803 127.68 134.421 127.648 135.232L127.632 135.84L127.648 136.448C127.68 137.259 127.893 137.883 128.288 138.32C128.693 138.747 129.237 138.96 129.92 138.96ZM138.299 140C138.022 140 137.824 139.867 137.707 139.6L134.731 132.176C134.72 132.144 134.715 132.091 134.715 132.016C134.715 131.92 134.747 131.84 134.811 131.776C134.875 131.712 134.95 131.68 135.035 131.68H135.771C135.942 131.68 136.07 131.765 136.155 131.936L138.619 138.32L141.083 131.936C141.104 131.872 141.147 131.813 141.211 131.76C141.286 131.707 141.371 131.68 141.467 131.68H142.203C142.288 131.68 142.363 131.712 142.427 131.776C142.491 131.84 142.523 131.92 142.523 132.016L142.491 132.176L139.531 139.6C139.414 139.867 139.216 140 138.939 140H138.299ZM147.23 140.16C146.142 140.16 145.273 139.824 144.622 139.152C143.972 138.469 143.614 137.541 143.55 136.368L143.534 135.824L143.55 135.296C143.614 134.144 143.972 133.227 144.622 132.544C145.273 131.861 146.142 131.52 147.23 131.52C148.404 131.52 149.31 131.893 149.95 132.64C150.601 133.387 150.926 134.4 150.926 135.68V135.968C150.926 136.075 150.889 136.165 150.814 136.24C150.75 136.304 150.665 136.336 150.558 136.336H145.006V136.48C145.038 137.173 145.252 137.765 145.646 138.256C146.041 138.747 146.564 138.992 147.214 138.992C147.716 138.992 148.121 138.896 148.43 138.704C148.75 138.501 148.99 138.293 149.15 138.08C149.246 137.952 149.321 137.877 149.374 137.856C149.428 137.824 149.518 137.808 149.646 137.808H150.35C150.446 137.808 150.526 137.835 150.59 137.888C150.665 137.941 150.702 138.011 150.702 138.096C150.702 138.331 150.558 138.613 150.27 138.944C149.982 139.275 149.572 139.563 149.038 139.808C148.516 140.043 147.913 140.16 147.23 140.16ZM149.47 135.248V135.2C149.47 134.453 149.268 133.845 148.862 133.376C148.457 132.907 147.913 132.672 147.23 132.672C146.537 132.672 145.993 132.907 145.598 133.376C145.204 133.845 145.006 134.453 145.006 135.2V135.248H149.47ZM161.065 140.16C159.679 140.16 158.601 139.776 157.833 139.008C157.065 138.24 156.655 137.2 156.601 135.888C156.591 135.568 156.585 135.067 156.585 134.384C156.585 133.691 156.591 133.189 156.601 132.88C156.644 131.579 157.049 130.549 157.817 129.792C158.596 129.024 159.679 128.64 161.065 128.64C162.004 128.64 162.799 128.811 163.449 129.152C164.1 129.493 164.591 129.904 164.921 130.384C165.252 130.853 165.428 131.291 165.449 131.696V131.728C165.449 131.813 165.412 131.888 165.337 131.952C165.273 132.005 165.199 132.032 165.113 132.032H164.217C164.121 132.032 164.047 132.011 163.993 131.968C163.951 131.925 163.908 131.845 163.865 131.728C163.695 131.227 163.38 130.805 162.921 130.464C162.463 130.123 161.844 129.952 161.065 129.952C160.169 129.952 159.465 130.197 158.953 130.688C158.441 131.179 158.169 131.936 158.137 132.96C158.127 133.269 158.121 133.744 158.121 134.384C158.121 135.013 158.127 135.488 158.137 135.808C158.169 136.843 158.441 137.605 158.953 138.096C159.465 138.587 160.169 138.832 161.065 138.832C161.972 138.832 162.697 138.587 163.241 138.096C163.785 137.595 164.057 136.848 164.057 135.856V135.168H161.609C161.503 135.168 161.412 135.131 161.337 135.056C161.273 134.981 161.241 134.891 161.241 134.784V134.304C161.241 134.197 161.273 134.107 161.337 134.032C161.412 133.957 161.503 133.92 161.609 133.92H165.193C165.311 133.92 165.401 133.957 165.465 134.032C165.54 134.096 165.577 134.187 165.577 134.304V135.824C165.577 136.688 165.396 137.451 165.033 138.112C164.681 138.763 164.164 139.269 163.481 139.632C162.799 139.984 161.993 140.16 161.065 140.16ZM168.037 140C167.93 140 167.839 139.968 167.765 139.904C167.701 139.829 167.669 139.739 167.669 139.632V132.064C167.669 131.957 167.701 131.867 167.765 131.792C167.839 131.717 167.93 131.68 168.037 131.68H168.709C168.826 131.68 168.917 131.717 168.981 131.792C169.055 131.856 169.093 131.947 169.093 132.064V132.768C169.53 132.043 170.271 131.68 171.317 131.68H171.941C172.058 131.68 172.149 131.712 172.213 131.776C172.277 131.84 172.309 131.931 172.309 132.048V132.64C172.309 132.747 172.277 132.837 172.213 132.912C172.149 132.976 172.058 133.008 171.941 133.008H171.029C170.442 133.008 169.978 133.179 169.637 133.52C169.306 133.861 169.141 134.325 169.141 134.912V139.632C169.141 139.739 169.103 139.829 169.029 139.904C168.954 139.968 168.863 140 168.757 140H168.037ZM176.904 140.16C175.731 140.16 174.824 139.829 174.184 139.168C173.555 138.507 173.219 137.627 173.176 136.528L173.16 135.84L173.176 135.152C173.219 134.053 173.56 133.173 174.2 132.512C174.851 131.851 175.752 131.52 176.904 131.52C178.056 131.52 178.952 131.851 179.592 132.512C180.243 133.173 180.589 134.053 180.632 135.152C180.653 135.387 180.664 135.616 180.664 135.84C180.664 136.064 180.653 136.293 180.632 136.528C180.589 137.627 180.248 138.507 179.608 139.168C178.979 139.829 178.077 140.16 176.904 140.16ZM176.904 138.96C177.587 138.96 178.125 138.747 178.52 138.32C178.925 137.883 179.144 137.259 179.176 136.448C179.187 136.341 179.192 136.139 179.192 135.84C179.192 135.541 179.187 135.339 179.176 135.232C179.144 134.421 178.925 133.803 178.52 133.376C178.125 132.939 177.587 132.72 176.904 132.72C176.221 132.72 175.677 132.939 175.272 133.376C174.877 133.803 174.664 134.421 174.632 135.232L174.616 135.84L174.632 136.448C174.664 137.259 174.877 137.883 175.272 138.32C175.677 138.747 176.221 138.96 176.904 138.96ZM184.674 140C184.524 140 184.412 139.968 184.338 139.904C184.263 139.84 184.204 139.739 184.162 139.6L181.89 132.176L181.858 132.016C181.858 131.92 181.89 131.84 181.954 131.776C182.018 131.712 182.098 131.68 182.194 131.68H182.85C182.956 131.68 183.042 131.712 183.106 131.776C183.18 131.829 183.223 131.883 183.234 131.936L185.042 138.048L186.962 132.016C186.983 131.931 187.031 131.856 187.106 131.792C187.18 131.717 187.282 131.68 187.41 131.68H187.922C188.05 131.68 188.151 131.717 188.226 131.792C188.3 131.856 188.348 131.931 188.37 132.016L190.29 138.048L192.098 131.936C192.108 131.883 192.146 131.829 192.21 131.776C192.284 131.712 192.375 131.68 192.482 131.68H193.138C193.234 131.68 193.314 131.712 193.378 131.776C193.442 131.84 193.474 131.92 193.474 132.016L193.442 132.176L191.17 139.6C191.127 139.739 191.068 139.84 190.994 139.904C190.919 139.968 190.807 140 190.658 140H190.082C189.804 140 189.623 139.867 189.538 139.6L187.666 133.808L185.794 139.6C185.708 139.867 185.527 140 185.25 140H184.674ZM198.463 140C196.809 140 195.983 139.067 195.983 137.2V132.912H194.719C194.612 132.912 194.527 132.88 194.463 132.816C194.399 132.752 194.367 132.667 194.367 132.56V132.048C194.367 131.941 194.399 131.856 194.463 131.792C194.527 131.717 194.612 131.68 194.719 131.68H195.983V129.008C195.983 128.901 196.015 128.816 196.079 128.752C196.143 128.677 196.228 128.64 196.335 128.64H197.039C197.145 128.64 197.231 128.677 197.295 128.752C197.369 128.816 197.407 128.901 197.407 129.008V131.68H199.391C199.497 131.68 199.583 131.717 199.647 131.792C199.721 131.856 199.759 131.941 199.759 132.048V132.56C199.759 132.667 199.721 132.752 199.647 132.816C199.583 132.88 199.497 132.912 199.391 132.912H197.407V137.088C197.407 137.632 197.492 138.043 197.663 138.32C197.844 138.597 198.148 138.736 198.575 138.736H199.551C199.657 138.736 199.743 138.773 199.807 138.848C199.871 138.912 199.903 138.997 199.903 139.104V139.632C199.903 139.739 199.871 139.829 199.807 139.904C199.743 139.968 199.657 140 199.551 140H198.463ZM201.85 140C201.743 140 201.652 139.968 201.578 139.904C201.514 139.829 201.482 139.739 201.482 139.632V129.008C201.482 128.891 201.514 128.8 201.578 128.736C201.652 128.672 201.743 128.64 201.85 128.64H202.586C202.703 128.64 202.794 128.672 202.858 128.736C202.922 128.8 202.954 128.891 202.954 129.008V132.736C203.263 132.341 203.626 132.043 204.042 131.84C204.468 131.627 204.991 131.52 205.61 131.52C206.634 131.52 207.428 131.851 207.994 132.512C208.57 133.163 208.858 134.027 208.858 135.104V139.632C208.858 139.739 208.82 139.829 208.746 139.904C208.682 139.968 208.596 140 208.49 140H207.738C207.631 140 207.54 139.968 207.466 139.904C207.402 139.829 207.37 139.739 207.37 139.632V135.2C207.37 134.432 207.183 133.835 206.81 133.408C206.436 132.981 205.898 132.768 205.194 132.768C204.511 132.768 203.967 132.987 203.562 133.424C203.156 133.851 202.954 134.443 202.954 135.2V139.632C202.954 139.739 202.916 139.829 202.842 139.904C202.778 139.968 202.692 140 202.586 140H201.85ZM52.8588 162C52.7734 162 52.6988 161.968 52.6348 161.904C52.5708 161.84 52.5388 161.765 52.5388 161.68L52.5708 161.504L56.5388 151.152C56.6241 150.917 56.7948 150.8 57.0508 150.8H58.0748C58.3308 150.8 58.5014 150.917 58.5868 151.152L62.5548 161.504L62.5868 161.68C62.5868 161.765 62.5494 161.84 62.4748 161.904C62.4108 161.968 62.3361 162 62.2508 162H61.4988C61.3921 162 61.3014 161.973 61.2268 161.92C61.1628 161.856 61.1201 161.792 61.0988 161.728L60.2028 159.424H54.9068L54.0268 161.728C53.9414 161.909 53.8081 162 53.6268 162H52.8588ZM55.3708 158.096H59.7548L57.5628 152.352L55.3708 158.096ZM64.4743 162C64.3676 162 64.2769 161.968 64.2023 161.904C64.1383 161.829 64.1063 161.739 64.1063 161.632V154.048C64.1063 153.941 64.1383 153.856 64.2023 153.792C64.2769 153.717 64.3676 153.68 64.4743 153.68H65.1623C65.2796 153.68 65.3703 153.712 65.4343 153.776C65.4983 153.84 65.5303 153.931 65.5303 154.048V154.752C65.8503 154.357 66.2183 154.053 66.6343 153.84C67.0609 153.627 67.5889 153.52 68.2183 153.52C69.2423 153.52 70.0369 153.851 70.6023 154.512C71.1676 155.163 71.4503 156.027 71.4503 157.104V161.632C71.4503 161.739 71.4129 161.829 71.3383 161.904C71.2743 161.968 71.1889 162 71.0823 162H70.3463C70.2396 162 70.1489 161.968 70.0743 161.904C70.0103 161.829 69.9783 161.739 69.9783 161.632V157.2C69.9783 156.432 69.7916 155.835 69.4183 155.408C69.0449 154.981 68.5116 154.768 67.8183 154.768C67.1356 154.768 66.5916 154.987 66.1863 155.424C65.7809 155.851 65.5783 156.443 65.5783 157.2V161.632C65.5783 161.739 65.5409 161.829 65.4663 161.904C65.4023 161.968 65.3169 162 65.2103 162H64.4743ZM76.8025 162.16C75.6825 162.16 74.8398 161.797 74.2745 161.072C73.7198 160.347 73.4212 159.429 73.3785 158.32L73.3625 157.84L73.3785 157.36C73.4212 156.261 73.7252 155.349 74.2905 154.624C74.8558 153.888 75.6932 153.52 76.8025 153.52C77.9118 153.52 78.7758 153.915 79.3945 154.704V151.008C79.3945 150.901 79.4265 150.816 79.4905 150.752C79.5652 150.677 79.6558 150.64 79.7625 150.64H80.4825C80.5892 150.64 80.6745 150.677 80.7385 150.752C80.8132 150.816 80.8505 150.901 80.8505 151.008V161.632C80.8505 161.739 80.8132 161.829 80.7385 161.904C80.6745 161.968 80.5892 162 80.4825 162H79.7945C79.6878 162 79.6025 161.968 79.5385 161.904C79.4745 161.829 79.4425 161.739 79.4425 161.632V160.944C78.8345 161.755 77.9545 162.16 76.8025 162.16ZM77.1065 160.912C77.8532 160.912 78.4132 160.667 78.7865 160.176C79.1598 159.675 79.3625 159.083 79.3945 158.4C79.4052 158.283 79.4105 158.08 79.4105 157.792C79.4105 157.493 79.4052 157.285 79.3945 157.168C79.3732 156.517 79.1652 155.957 78.7705 155.488C78.3865 155.008 77.8318 154.768 77.1065 154.768C76.3385 154.768 75.7785 155.008 75.4265 155.488C75.0745 155.968 74.8825 156.597 74.8505 157.376L74.8345 157.84C74.8345 159.888 75.5918 160.912 77.1065 160.912ZM91.408 162.16C89.9893 162.16 88.9067 161.776 88.16 161.008C87.424 160.229 87.0293 159.168 86.976 157.824C86.9653 157.536 86.96 157.067 86.96 156.416C86.96 155.755 86.9653 155.275 86.976 154.976C87.0293 153.632 87.424 152.576 88.16 151.808C88.9067 151.029 89.9893 150.64 91.408 150.64C92.3573 150.64 93.1627 150.811 93.824 151.152C94.4853 151.483 94.9813 151.92 95.312 152.464C95.6533 153.008 95.84 153.589 95.872 154.208C95.872 154.304 95.8347 154.384 95.76 154.448C95.696 154.501 95.616 154.528 95.52 154.528H94.72C94.6133 154.528 94.528 154.501 94.464 154.448C94.4 154.395 94.352 154.304 94.32 154.176C94.1387 153.355 93.808 152.779 93.328 152.448C92.8587 152.117 92.2187 151.952 91.408 151.952C89.552 151.952 88.5867 152.987 88.512 155.056C88.5013 155.344 88.496 155.787 88.496 156.384C88.496 156.981 88.5013 157.435 88.512 157.744C88.5867 159.803 89.552 160.832 91.408 160.832C92.208 160.832 92.848 160.667 93.328 160.336C93.808 160.005 94.1387 159.435 94.32 158.624C94.352 158.496 94.4 158.405 94.464 158.352C94.528 158.299 94.6133 158.272 94.72 158.272H95.52C95.616 158.272 95.696 158.304 95.76 158.368C95.8347 158.421 95.872 158.496 95.872 158.592C95.84 159.211 95.6533 159.792 95.312 160.336C94.9813 160.88 94.4853 161.323 93.824 161.664C93.1627 161.995 92.3573 162.16 91.408 162.16ZM98.2246 162C98.118 162 98.0273 161.968 97.9526 161.904C97.8886 161.829 97.8566 161.739 97.8566 161.632V151.008C97.8566 150.891 97.8886 150.8 97.9526 150.736C98.0273 150.672 98.118 150.64 98.2246 150.64H98.9606C99.078 150.64 99.1686 150.672 99.2326 150.736C99.2966 150.8 99.3286 150.891 99.3286 151.008V154.736C99.638 154.341 100.001 154.043 100.417 153.84C100.843 153.627 101.366 153.52 101.985 153.52C103.009 153.52 103.803 153.851 104.369 154.512C104.945 155.163 105.233 156.027 105.233 157.104V161.632C105.233 161.739 105.195 161.829 105.121 161.904C105.057 161.968 104.971 162 104.865 162H104.113C104.006 162 103.915 161.968 103.841 161.904C103.777 161.829 103.745 161.739 103.745 161.632V157.2C103.745 156.432 103.558 155.835 103.185 155.408C102.811 154.981 102.273 154.768 101.569 154.768C100.886 154.768 100.342 154.987 99.9366 155.424C99.5313 155.851 99.3286 156.443 99.3286 157.2V161.632C99.3286 161.739 99.2913 161.829 99.2166 161.904C99.1526 161.968 99.0673 162 98.9606 162H98.2246ZM109.863 162.16C109.341 162.16 108.855 162.053 108.407 161.84C107.97 161.627 107.618 161.339 107.351 160.976C107.095 160.603 106.967 160.192 106.967 159.744C106.967 159.04 107.255 158.464 107.831 158.016C108.407 157.568 109.191 157.269 110.183 157.12L112.583 156.784V156.32C112.583 155.221 111.949 154.672 110.679 154.672C110.189 154.672 109.794 154.773 109.495 154.976C109.197 155.168 108.978 155.397 108.839 155.664C108.797 155.771 108.749 155.845 108.695 155.888C108.653 155.92 108.589 155.936 108.503 155.936H107.879C107.783 155.936 107.698 155.904 107.623 155.84C107.559 155.765 107.527 155.68 107.527 155.584C107.527 155.339 107.639 155.056 107.863 154.736C108.098 154.405 108.455 154.123 108.935 153.888C109.415 153.643 110.002 153.52 110.695 153.52C111.89 153.52 112.743 153.797 113.255 154.352C113.778 154.907 114.039 155.6 114.039 156.432V161.632C114.039 161.739 114.002 161.829 113.927 161.904C113.863 161.968 113.778 162 113.671 162H112.967C112.861 162 112.775 161.968 112.711 161.904C112.647 161.829 112.615 161.739 112.615 161.632V160.928C112.381 161.28 112.039 161.573 111.591 161.808C111.143 162.043 110.567 162.16 109.863 162.16ZM110.183 160.992C110.887 160.992 111.463 160.763 111.911 160.304C112.359 159.845 112.583 159.179 112.583 158.304V157.856L110.711 158.128C109.943 158.235 109.362 158.416 108.967 158.672C108.573 158.928 108.375 159.248 108.375 159.632C108.375 160.069 108.551 160.405 108.903 160.64C109.266 160.875 109.693 160.992 110.183 160.992ZM116.724 162C116.618 162 116.527 161.968 116.452 161.904C116.388 161.829 116.356 161.739 116.356 161.632V154.048C116.356 153.941 116.388 153.856 116.452 153.792C116.527 153.717 116.618 153.68 116.724 153.68H117.412C117.53 153.68 117.62 153.712 117.684 153.776C117.748 153.84 117.78 153.931 117.78 154.048V154.752C118.1 154.357 118.468 154.053 118.884 153.84C119.311 153.627 119.839 153.52 120.468 153.52C121.492 153.52 122.287 153.851 122.852 154.512C123.418 155.163 123.7 156.027 123.7 157.104V161.632C123.7 161.739 123.663 161.829 123.588 161.904C123.524 161.968 123.439 162 123.332 162H122.596C122.49 162 122.399 161.968 122.324 161.904C122.26 161.829 122.228 161.739 122.228 161.632V157.2C122.228 156.432 122.042 155.835 121.668 155.408C121.295 154.981 120.762 154.768 120.068 154.768C119.386 154.768 118.842 154.987 118.436 155.424C118.031 155.851 117.828 156.443 117.828 157.2V161.632C117.828 161.739 117.791 161.829 117.716 161.904C117.652 161.968 117.567 162 117.46 162H116.724ZM129.389 165.52C128.503 165.52 127.794 165.371 127.261 165.072C126.727 164.773 126.349 164.432 126.125 164.048C125.911 163.664 125.805 163.333 125.805 163.056C125.805 162.96 125.842 162.875 125.917 162.8C125.991 162.736 126.077 162.704 126.173 162.704H126.877C126.973 162.704 127.053 162.725 127.117 162.768C127.181 162.821 127.234 162.912 127.277 163.04C127.575 163.893 128.253 164.32 129.309 164.32C130.109 164.32 130.701 164.149 131.085 163.808C131.469 163.467 131.661 162.864 131.661 162V160.896C131.042 161.685 130.178 162.08 129.069 162.08C127.938 162.08 127.09 161.717 126.525 160.992C125.97 160.267 125.677 159.349 125.645 158.24L125.629 157.792L125.645 157.36C125.677 156.261 125.97 155.349 126.525 154.624C127.09 153.888 127.938 153.52 129.069 153.52C130.189 153.52 131.063 153.931 131.693 154.752V154.064C131.693 153.957 131.725 153.867 131.789 153.792C131.863 153.717 131.954 153.68 132.061 153.68H132.749C132.855 153.68 132.941 153.717 133.005 153.792C133.079 153.867 133.117 153.957 133.117 154.064V161.824C133.117 164.288 131.874 165.52 129.389 165.52ZM129.357 160.832C130.103 160.832 130.663 160.592 131.037 160.112C131.421 159.621 131.629 159.035 131.661 158.352C131.671 158.256 131.677 158.069 131.677 157.792C131.677 157.525 131.671 157.344 131.661 157.248C131.629 156.565 131.421 155.984 131.037 155.504C130.663 155.013 130.103 154.768 129.357 154.768C128.589 154.768 128.029 155.013 127.677 155.504C127.335 155.984 127.149 156.608 127.117 157.376L127.101 157.792L127.117 158.224C127.149 158.992 127.335 159.621 127.677 160.112C128.029 160.592 128.589 160.832 129.357 160.832ZM138.824 162.16C137.736 162.16 136.867 161.824 136.216 161.152C135.565 160.469 135.208 159.541 135.144 158.368L135.128 157.824L135.144 157.296C135.208 156.144 135.565 155.227 136.216 154.544C136.867 153.861 137.736 153.52 138.824 153.52C139.997 153.52 140.904 153.893 141.544 154.64C142.195 155.387 142.52 156.4 142.52 157.68V157.968C142.52 158.075 142.483 158.165 142.408 158.24C142.344 158.304 142.259 158.336 142.152 158.336H136.6V158.48C136.632 159.173 136.845 159.765 137.24 160.256C137.635 160.747 138.157 160.992 138.808 160.992C139.309 160.992 139.715 160.896 140.024 160.704C140.344 160.501 140.584 160.293 140.744 160.08C140.84 159.952 140.915 159.877 140.968 159.856C141.021 159.824 141.112 159.808 141.24 159.808H141.944C142.04 159.808 142.12 159.835 142.184 159.888C142.259 159.941 142.296 160.011 142.296 160.096C142.296 160.331 142.152 160.613 141.864 160.944C141.576 161.275 141.165 161.563 140.632 161.808C140.109 162.043 139.507 162.16 138.824 162.16ZM141.064 157.248V157.2C141.064 156.453 140.861 155.845 140.456 155.376C140.051 154.907 139.507 154.672 138.824 154.672C138.131 154.672 137.587 154.907 137.192 155.376C136.797 155.845 136.6 156.453 136.6 157.2V157.248H141.064ZM147.406 162C147.32 162 147.246 161.968 147.182 161.904C147.118 161.84 147.086 161.765 147.086 161.68L147.118 161.504L151.086 151.152C151.171 150.917 151.342 150.8 151.598 150.8H152.622C152.878 150.8 153.048 150.917 153.134 151.152L157.102 161.504L157.134 161.68C157.134 161.765 157.096 161.84 157.022 161.904C156.958 161.968 156.883 162 156.798 162H156.046C155.939 162 155.848 161.973 155.774 161.92C155.71 161.856 155.667 161.792 155.646 161.728L154.75 159.424H149.454L148.574 161.728C148.488 161.909 148.355 162 148.174 162H147.406ZM149.918 158.096H154.302L152.11 152.352L149.918 158.096ZM159.021 162C158.914 162 158.824 161.968 158.749 161.904C158.685 161.829 158.653 161.739 158.653 161.632V154.048C158.653 153.941 158.685 153.856 158.749 153.792C158.824 153.717 158.914 153.68 159.021 153.68H159.709C159.826 153.68 159.917 153.712 159.981 153.776C160.045 153.84 160.077 153.931 160.077 154.048V154.752C160.397 154.357 160.765 154.053 161.181 153.84C161.608 153.627 162.136 153.52 162.765 153.52C163.789 153.52 164.584 153.851 165.149 154.512C165.714 155.163 165.997 156.027 165.997 157.104V161.632C165.997 161.739 165.96 161.829 165.885 161.904C165.821 161.968 165.736 162 165.629 162H164.893C164.786 162 164.696 161.968 164.621 161.904C164.557 161.829 164.525 161.739 164.525 161.632V157.2C164.525 156.432 164.338 155.835 163.965 155.408C163.592 154.981 163.058 154.768 162.365 154.768C161.682 154.768 161.138 154.987 160.733 155.424C160.328 155.851 160.125 156.443 160.125 157.2V161.632C160.125 161.739 160.088 161.829 160.013 161.904C159.949 161.968 159.864 162 159.757 162H159.021ZM171.349 162.16C170.229 162.16 169.387 161.797 168.821 161.072C168.267 160.347 167.968 159.429 167.925 158.32L167.909 157.84L167.925 157.36C167.968 156.261 168.272 155.349 168.837 154.624C169.403 153.888 170.24 153.52 171.349 153.52C172.459 153.52 173.323 153.915 173.941 154.704V151.008C173.941 150.901 173.973 150.816 174.037 150.752C174.112 150.677 174.203 150.64 174.309 150.64H175.029C175.136 150.64 175.221 150.677 175.285 150.752C175.36 150.816 175.397 150.901 175.397 151.008V161.632C175.397 161.739 175.36 161.829 175.285 161.904C175.221 161.968 175.136 162 175.029 162H174.341C174.235 162 174.149 161.968 174.085 161.904C174.021 161.829 173.989 161.739 173.989 161.632V160.944C173.381 161.755 172.501 162.16 171.349 162.16ZM171.653 160.912C172.4 160.912 172.96 160.667 173.333 160.176C173.707 159.675 173.909 159.083 173.941 158.4C173.952 158.283 173.957 158.08 173.957 157.792C173.957 157.493 173.952 157.285 173.941 157.168C173.92 156.517 173.712 155.957 173.317 155.488C172.933 155.008 172.379 154.768 171.653 154.768C170.885 154.768 170.325 155.008 169.973 155.488C169.621 155.968 169.429 156.597 169.397 157.376L169.381 157.84C169.381 159.888 170.139 160.912 171.653 160.912ZM184.831 162C184.724 162 184.633 161.968 184.559 161.904C184.495 161.829 184.463 161.739 184.463 161.632V157.84L180.607 151.328C180.575 151.264 180.559 151.195 180.559 151.12C180.559 151.035 180.591 150.96 180.655 150.896C180.719 150.832 180.793 150.8 180.879 150.8H181.647C181.839 150.8 181.977 150.891 182.062 151.072L185.231 156.304L188.383 151.072C188.489 150.891 188.628 150.8 188.799 150.8H189.567C189.652 150.8 189.727 150.832 189.791 150.896C189.865 150.96 189.903 151.035 189.903 151.12C189.903 151.173 189.881 151.243 189.839 151.328L185.983 157.84V161.632C185.983 161.739 185.945 161.829 185.871 161.904C185.807 161.968 185.716 162 185.599 162H184.831ZM193.607 162.16C192.434 162.16 191.527 161.829 190.887 161.168C190.258 160.507 189.922 159.627 189.879 158.528L189.863 157.84L189.879 157.152C189.922 156.053 190.263 155.173 190.903 154.512C191.554 153.851 192.455 153.52 193.607 153.52C194.759 153.52 195.655 153.851 196.295 154.512C196.946 155.173 197.293 156.053 197.335 157.152C197.357 157.387 197.367 157.616 197.367 157.84C197.367 158.064 197.357 158.293 197.335 158.528C197.293 159.627 196.951 160.507 196.311 161.168C195.682 161.829 194.781 162.16 193.607 162.16ZM193.607 160.96C194.29 160.96 194.829 160.747 195.223 160.32C195.629 159.883 195.847 159.259 195.879 158.448C195.89 158.341 195.895 158.139 195.895 157.84C195.895 157.541 195.89 157.339 195.879 157.232C195.847 156.421 195.629 155.803 195.223 155.376C194.829 154.939 194.29 154.72 193.607 154.72C192.925 154.72 192.381 154.939 191.975 155.376C191.581 155.803 191.367 156.421 191.335 157.232L191.319 157.84L191.335 158.448C191.367 159.259 191.581 159.883 191.975 160.32C192.381 160.747 192.925 160.96 193.607 160.96ZM202.492 162.16C201.478 162.16 200.694 161.835 200.14 161.184C199.585 160.523 199.308 159.648 199.308 158.56V154.048C199.308 153.941 199.34 153.856 199.404 153.792C199.478 153.717 199.569 153.68 199.676 153.68H200.412C200.518 153.68 200.604 153.717 200.668 153.792C200.742 153.856 200.78 153.941 200.78 154.048V158.48C200.78 160.101 201.484 160.912 202.891 160.912C203.574 160.912 204.113 160.699 204.508 160.272C204.913 159.835 205.116 159.237 205.116 158.48V154.048C205.116 153.941 205.148 153.856 205.212 153.792C205.286 153.717 205.377 153.68 205.484 153.68H206.22C206.326 153.68 206.412 153.717 206.476 153.792C206.55 153.856 206.588 153.941 206.588 154.048V161.632C206.588 161.739 206.55 161.829 206.476 161.904C206.412 161.968 206.326 162 206.22 162H205.532C205.425 162 205.334 161.968 205.26 161.904C205.196 161.829 205.164 161.739 205.164 161.632V160.912C204.854 161.328 204.492 161.643 204.076 161.856C203.66 162.059 203.132 162.16 202.492 162.16ZM69.3585 184C69.0918 184 68.9265 183.861 68.8625 183.584L66.7985 173.296L66.7665 173.12C66.7665 173.035 66.7985 172.96 66.8625 172.896C66.9265 172.832 67.0012 172.8 67.0865 172.8H67.8705C68.0945 172.8 68.2225 172.891 68.2545 173.072L69.9025 181.424L71.6785 175.664C71.7425 175.408 71.9078 175.28 72.1745 175.28H72.7345C72.9905 175.28 73.1612 175.408 73.2465 175.664L75.0065 181.424L76.6545 173.072C76.6865 172.891 76.8198 172.8 77.0545 172.8H77.8225C77.9078 172.8 77.9825 172.832 78.0465 172.896C78.1105 172.96 78.1425 173.035 78.1425 173.12C78.1425 173.184 78.1372 173.243 78.1265 173.296L76.0465 183.584C75.9932 183.861 75.8278 184 75.5505 184H74.9745C74.7078 184 74.5318 183.867 74.4465 183.6L72.4625 177.44L70.4625 183.6C70.3878 183.867 70.2172 184 69.9505 184H69.3585ZM80.2838 174.112C80.1771 174.112 80.0864 174.08 80.0118 174.016C79.9478 173.941 79.9158 173.851 79.9158 173.744V172.912C79.9158 172.805 79.9478 172.715 80.0118 172.64C80.0864 172.565 80.1771 172.528 80.2838 172.528H81.2278C81.3344 172.528 81.4251 172.565 81.4998 172.64C81.5744 172.715 81.6118 172.805 81.6118 172.912V173.744C81.6118 173.851 81.5744 173.941 81.4998 174.016C81.4251 174.08 81.3344 174.112 81.2278 174.112H80.2838ZM80.4118 184C80.3051 184 80.2144 183.968 80.1398 183.904C80.0758 183.829 80.0438 183.739 80.0438 183.632V176.048C80.0438 175.941 80.0758 175.856 80.1398 175.792C80.2144 175.717 80.3051 175.68 80.4118 175.68H81.1158C81.2224 175.68 81.3078 175.717 81.3718 175.792C81.4464 175.856 81.4838 175.941 81.4838 176.048V183.632C81.4838 183.739 81.4464 183.829 81.3718 183.904C81.3078 183.968 81.2224 184 81.1158 184H80.4118ZM84.2715 184C84.1648 184 84.0742 183.968 83.9995 183.904C83.9355 183.829 83.9035 183.739 83.9035 183.632V173.008C83.9035 172.891 83.9355 172.8 83.9995 172.736C84.0742 172.672 84.1648 172.64 84.2715 172.64H84.9755C85.0822 172.64 85.1675 172.677 85.2315 172.752C85.3062 172.816 85.3435 172.901 85.3435 173.008V183.632C85.3435 183.739 85.3062 183.829 85.2315 183.904C85.1675 183.968 85.0822 184 84.9755 184H84.2715ZM88.1309 184C88.0242 184 87.9335 183.968 87.8589 183.904C87.7949 183.829 87.7629 183.739 87.7629 183.632V173.008C87.7629 172.891 87.7949 172.8 87.8589 172.736C87.9335 172.672 88.0242 172.64 88.1309 172.64H88.8349C88.9415 172.64 89.0269 172.677 89.0909 172.752C89.1655 172.816 89.2029 172.901 89.2029 173.008V183.632C89.2029 183.739 89.1655 183.829 89.0909 183.904C89.0269 183.968 88.9415 184 88.8349 184H88.1309ZM96.1038 184C95.9971 184 95.9118 183.968 95.8478 183.904C95.7838 183.829 95.7518 183.739 95.7518 183.632V173.184C95.7518 173.067 95.7838 172.976 95.8478 172.912C95.9118 172.837 95.9971 172.8 96.1038 172.8H100.472C101.602 172.8 102.456 173.072 103.032 173.616C103.608 174.16 103.896 174.869 103.896 175.744C103.896 176.341 103.757 176.843 103.48 177.248C103.202 177.643 102.877 177.931 102.504 178.112C102.962 178.336 103.346 178.683 103.656 179.152C103.965 179.621 104.12 180.16 104.12 180.768C104.12 181.365 103.981 181.909 103.704 182.4C103.437 182.891 103.037 183.28 102.504 183.568C101.97 183.856 101.336 184 100.6 184H96.1038ZM100.232 177.552C100.925 177.552 101.453 177.397 101.816 177.088C102.178 176.768 102.36 176.325 102.36 175.76C102.36 175.205 102.178 174.784 101.816 174.496C101.464 174.208 100.936 174.064 100.232 174.064H97.2558V177.552H100.232ZM100.392 182.736C101.074 182.736 101.608 182.555 101.992 182.192C102.386 181.819 102.584 181.344 102.584 180.768C102.584 180.181 102.386 179.707 101.992 179.344C101.608 178.981 101.074 178.8 100.392 178.8H97.2558V182.736H100.392ZM109.512 184.16C108.424 184.16 107.554 183.824 106.904 183.152C106.253 182.469 105.896 181.541 105.832 180.368L105.816 179.824L105.832 179.296C105.896 178.144 106.253 177.227 106.904 176.544C107.554 175.861 108.424 175.52 109.512 175.52C110.685 175.52 111.592 175.893 112.232 176.64C112.882 177.387 113.208 178.4 113.208 179.68V179.968C113.208 180.075 113.17 180.165 113.096 180.24C113.032 180.304 112.946 180.336 112.84 180.336H107.288V180.48C107.32 181.173 107.533 181.765 107.928 182.256C108.322 182.747 108.845 182.992 109.496 182.992C109.997 182.992 110.402 182.896 110.712 182.704C111.032 182.501 111.272 182.293 111.432 182.08C111.528 181.952 111.602 181.877 111.656 181.856C111.709 181.824 111.8 181.808 111.928 181.808H112.632C112.728 181.808 112.808 181.835 112.872 181.888C112.946 181.941 112.984 182.011 112.984 182.096C112.984 182.331 112.84 182.613 112.552 182.944C112.264 183.275 111.853 183.563 111.32 183.808C110.797 184.043 110.194 184.16 109.512 184.16ZM111.752 179.248V179.2C111.752 178.453 111.549 177.845 111.144 177.376C110.738 176.907 110.194 176.672 109.512 176.672C108.818 176.672 108.274 176.907 107.88 177.376C107.485 177.845 107.288 178.453 107.288 179.2V179.248H111.752ZM118.093 184C118.008 184 117.933 183.968 117.869 183.904C117.805 183.84 117.773 183.765 117.773 183.68L117.805 183.504L121.773 173.152C121.858 172.917 122.029 172.8 122.285 172.8H123.309C123.565 172.8 123.736 172.917 123.821 173.152L127.789 183.504L127.821 183.68C127.821 183.765 127.784 183.84 127.709 183.904C127.645 183.968 127.57 184 127.485 184H126.733C126.626 184 126.536 183.973 126.461 183.92C126.397 183.856 126.354 183.792 126.333 183.728L125.437 181.424H120.141L119.261 183.728C119.176 183.909 119.042 184 118.861 184H118.093ZM120.605 180.096H124.989L122.797 174.352L120.605 180.096ZM136.617 184.16C135.742 184.16 134.979 184.021 134.329 183.744C133.689 183.467 133.198 183.104 132.857 182.656C132.526 182.197 132.35 181.707 132.329 181.184C132.329 181.099 132.361 181.024 132.425 180.96C132.489 180.896 132.569 180.864 132.665 180.864H133.449C133.641 180.864 133.774 180.971 133.849 181.184C133.945 181.632 134.217 182.021 134.665 182.352C135.123 182.672 135.774 182.832 136.617 182.832C137.523 182.832 138.201 182.672 138.649 182.352C139.097 182.032 139.321 181.589 139.321 181.024C139.321 180.661 139.209 180.363 138.985 180.128C138.771 179.893 138.446 179.691 138.009 179.52C137.582 179.339 136.937 179.12 136.073 178.864C135.251 178.629 134.595 178.379 134.105 178.112C133.625 177.845 133.262 177.52 133.017 177.136C132.771 176.741 132.649 176.245 132.649 175.648C132.649 175.072 132.803 174.56 133.113 174.112C133.422 173.653 133.87 173.296 134.457 173.04C135.043 172.773 135.737 172.64 136.537 172.64C137.369 172.64 138.078 172.789 138.665 173.088C139.262 173.376 139.715 173.744 140.025 174.192C140.334 174.629 140.499 175.072 140.521 175.52C140.521 175.616 140.489 175.696 140.425 175.76C140.361 175.824 140.281 175.856 140.185 175.856H139.385C139.299 175.856 139.219 175.829 139.145 175.776C139.07 175.723 139.017 175.643 138.985 175.536C138.921 175.077 138.665 174.699 138.217 174.4C137.769 174.101 137.209 173.952 136.537 173.952C135.811 173.952 135.235 174.096 134.809 174.384C134.382 174.661 134.169 175.077 134.169 175.632C134.169 176.005 134.265 176.309 134.457 176.544C134.659 176.779 134.963 176.987 135.369 177.168C135.785 177.349 136.387 177.557 137.177 177.792C138.083 178.048 138.793 178.304 139.305 178.56C139.827 178.816 140.217 179.136 140.473 179.52C140.729 179.893 140.857 180.379 140.857 180.976C140.857 181.979 140.473 182.763 139.705 183.328C138.947 183.883 137.918 184.16 136.617 184.16ZM145.867 184.16C144.853 184.16 144.069 183.835 143.515 183.184C142.96 182.523 142.683 181.648 142.683 180.56V176.048C142.683 175.941 142.715 175.856 142.779 175.792C142.853 175.717 142.944 175.68 143.051 175.68H143.787C143.893 175.68 143.979 175.717 144.043 175.792C144.117 175.856 144.155 175.941 144.155 176.048V180.48C144.155 182.101 144.859 182.912 146.266 182.912C146.949 182.912 147.488 182.699 147.883 182.272C148.288 181.835 148.491 181.237 148.491 180.48V176.048C148.491 175.941 148.523 175.856 148.587 175.792C148.661 175.717 148.752 175.68 148.859 175.68H149.595C149.701 175.68 149.787 175.717 149.851 175.792C149.925 175.856 149.963 175.941 149.963 176.048V183.632C149.963 183.739 149.925 183.829 149.851 183.904C149.787 183.968 149.701 184 149.595 184H148.907C148.8 184 148.709 183.968 148.635 183.904C148.571 183.829 148.539 183.739 148.539 183.632V182.912C148.229 183.328 147.867 183.643 147.451 183.856C147.035 184.059 146.507 184.16 145.867 184.16ZM155.684 184.16C154.543 184.16 153.652 183.84 153.012 183.2C152.372 182.549 152.036 181.643 152.004 180.48L151.988 179.84L152.004 179.2C152.036 178.037 152.372 177.136 153.012 176.496C153.652 175.845 154.543 175.52 155.684 175.52C156.452 175.52 157.098 175.659 157.62 175.936C158.154 176.203 158.548 176.539 158.804 176.944C159.071 177.349 159.215 177.755 159.236 178.16C159.247 178.256 159.21 178.341 159.124 178.416C159.05 178.491 158.964 178.528 158.868 178.528H158.164C158.058 178.528 157.978 178.507 157.924 178.464C157.871 178.411 157.818 178.32 157.764 178.192C157.572 177.669 157.306 177.301 156.964 177.088C156.634 176.864 156.212 176.752 155.7 176.752C155.028 176.752 154.495 176.96 154.1 177.376C153.706 177.792 153.492 178.427 153.46 179.28L153.444 179.84L153.46 180.4C153.492 181.253 153.706 181.888 154.1 182.304C154.495 182.72 155.028 182.928 155.7 182.928C156.223 182.928 156.65 182.821 156.98 182.608C157.311 182.384 157.572 182.011 157.764 181.488C157.818 181.36 157.871 181.275 157.924 181.232C157.978 181.179 158.058 181.152 158.164 181.152H158.868C158.964 181.152 159.05 181.189 159.124 181.264C159.21 181.339 159.247 181.424 159.236 181.52C159.215 181.915 159.071 182.315 158.804 182.72C158.548 183.125 158.154 183.467 157.62 183.744C157.098 184.021 156.452 184.16 155.684 184.16ZM164.481 184.16C163.34 184.16 162.449 183.84 161.809 183.2C161.169 182.549 160.833 181.643 160.801 180.48L160.785 179.84L160.801 179.2C160.833 178.037 161.169 177.136 161.809 176.496C162.449 175.845 163.34 175.52 164.481 175.52C165.249 175.52 165.894 175.659 166.417 175.936C166.95 176.203 167.345 176.539 167.601 176.944C167.868 177.349 168.012 177.755 168.033 178.16C168.044 178.256 168.006 178.341 167.921 178.416C167.846 178.491 167.761 178.528 167.665 178.528H166.961C166.854 178.528 166.774 178.507 166.721 178.464C166.668 178.411 166.614 178.32 166.561 178.192C166.369 177.669 166.102 177.301 165.761 177.088C165.43 176.864 165.009 176.752 164.497 176.752C163.825 176.752 163.292 176.96 162.897 177.376C162.502 177.792 162.289 178.427 162.257 179.28L162.241 179.84L162.257 180.4C162.289 181.253 162.502 181.888 162.897 182.304C163.292 182.72 163.825 182.928 164.497 182.928C165.02 182.928 165.446 182.821 165.777 182.608C166.108 182.384 166.369 182.011 166.561 181.488C166.614 181.36 166.668 181.275 166.721 181.232C166.774 181.179 166.854 181.152 166.961 181.152H167.665C167.761 181.152 167.846 181.189 167.921 181.264C168.006 181.339 168.044 181.424 168.033 181.52C168.012 181.915 167.868 182.315 167.601 182.72C167.345 183.125 166.95 183.467 166.417 183.744C165.894 184.021 165.249 184.16 164.481 184.16ZM173.246 184.16C172.158 184.16 171.289 183.824 170.638 183.152C169.987 182.469 169.63 181.541 169.566 180.368L169.55 179.824L169.566 179.296C169.63 178.144 169.987 177.227 170.638 176.544C171.289 175.861 172.158 175.52 173.246 175.52C174.419 175.52 175.326 175.893 175.966 176.64C176.617 177.387 176.942 178.4 176.942 179.68V179.968C176.942 180.075 176.905 180.165 176.83 180.24C176.766 180.304 176.681 180.336 176.574 180.336H171.022V180.48C171.054 181.173 171.267 181.765 171.662 182.256C172.057 182.747 172.579 182.992 173.23 182.992C173.731 182.992 174.137 182.896 174.446 182.704C174.766 182.501 175.006 182.293 175.166 182.08C175.262 181.952 175.337 181.877 175.39 181.856C175.443 181.824 175.534 181.808 175.662 181.808H176.366C176.462 181.808 176.542 181.835 176.606 181.888C176.681 181.941 176.718 182.011 176.718 182.096C176.718 182.331 176.574 182.613 176.286 182.944C175.998 183.275 175.587 183.563 175.054 183.808C174.531 184.043 173.929 184.16 173.246 184.16ZM175.486 179.248V179.2C175.486 178.453 175.283 177.845 174.878 177.376C174.473 176.907 173.929 176.672 173.246 176.672C172.553 176.672 172.009 176.907 171.614 177.376C171.219 177.845 171.022 178.453 171.022 179.2V179.248H175.486ZM181.736 184.16C181 184.16 180.376 184.043 179.864 183.808C179.362 183.563 178.989 183.285 178.743 182.976C178.498 182.667 178.376 182.411 178.376 182.208C178.376 182.101 178.413 182.021 178.488 181.968C178.562 181.904 178.642 181.872 178.728 181.872H179.4C179.464 181.872 179.512 181.883 179.544 181.904C179.586 181.925 179.64 181.973 179.704 182.048C179.949 182.347 180.221 182.581 180.52 182.752C180.829 182.923 181.24 183.008 181.752 183.008C182.328 183.008 182.786 182.901 183.128 182.688C183.48 182.475 183.656 182.165 183.656 181.76C183.656 181.493 183.581 181.28 183.432 181.12C183.282 180.96 183.032 180.816 182.68 180.688C182.338 180.56 181.826 180.421 181.144 180.272C180.216 180.069 179.56 179.776 179.176 179.392C178.792 179.008 178.6 178.512 178.6 177.904C178.6 177.509 178.717 177.131 178.952 176.768C179.186 176.395 179.533 176.096 179.992 175.872C180.461 175.637 181.016 175.52 181.656 175.52C182.328 175.52 182.898 175.632 183.368 175.856C183.848 176.08 184.205 176.341 184.44 176.64C184.685 176.939 184.808 177.189 184.808 177.392C184.808 177.488 184.77 177.568 184.696 177.632C184.632 177.696 184.552 177.728 184.456 177.728H183.848C183.698 177.728 183.592 177.669 183.528 177.552C183.346 177.349 183.192 177.195 183.064 177.088C182.946 176.971 182.77 176.875 182.536 176.8C182.301 176.715 182.008 176.672 181.656 176.672C181.133 176.672 180.733 176.784 180.456 177.008C180.178 177.221 180.039 177.509 180.039 177.872C180.039 178.096 180.098 178.288 180.216 178.448C180.333 178.597 180.557 178.741 180.888 178.88C181.218 179.008 181.709 179.141 182.36 179.28C183.373 179.493 184.088 179.797 184.504 180.192C184.93 180.587 185.144 181.093 185.144 181.712C185.144 182.171 185.01 182.587 184.744 182.96C184.488 183.333 184.098 183.627 183.576 183.84C183.064 184.053 182.45 184.16 181.736 184.16ZM189.861 184.16C189.125 184.16 188.501 184.043 187.989 183.808C187.487 183.563 187.114 183.285 186.868 182.976C186.623 182.667 186.501 182.411 186.501 182.208C186.501 182.101 186.538 182.021 186.613 181.968C186.687 181.904 186.767 181.872 186.853 181.872H187.525C187.589 181.872 187.637 181.883 187.669 181.904C187.711 181.925 187.765 181.973 187.829 182.048C188.074 182.347 188.346 182.581 188.645 182.752C188.954 182.923 189.365 183.008 189.877 183.008C190.453 183.008 190.911 182.901 191.253 182.688C191.605 182.475 191.781 182.165 191.781 181.76C191.781 181.493 191.706 181.28 191.557 181.12C191.407 180.96 191.157 180.816 190.805 180.688C190.463 180.56 189.951 180.421 189.269 180.272C188.341 180.069 187.685 179.776 187.301 179.392C186.917 179.008 186.725 178.512 186.725 177.904C186.725 177.509 186.842 177.131 187.077 176.768C187.311 176.395 187.658 176.096 188.117 175.872C188.586 175.637 189.141 175.52 189.781 175.52C190.453 175.52 191.023 175.632 191.493 175.856C191.973 176.08 192.33 176.341 192.565 176.64C192.81 176.939 192.933 177.189 192.933 177.392C192.933 177.488 192.895 177.568 192.821 177.632C192.757 177.696 192.677 177.728 192.581 177.728H191.973C191.823 177.728 191.717 177.669 191.653 177.552C191.471 177.349 191.317 177.195 191.189 177.088C191.071 176.971 190.895 176.875 190.661 176.8C190.426 176.715 190.133 176.672 189.781 176.672C189.258 176.672 188.858 176.784 188.581 177.008C188.303 177.221 188.164 177.509 188.164 177.872C188.164 178.096 188.223 178.288 188.341 178.448C188.458 178.597 188.682 178.741 189.013 178.88C189.343 179.008 189.834 179.141 190.485 179.28C191.498 179.493 192.213 179.797 192.629 180.192C193.055 180.587 193.269 181.093 193.269 181.712C193.269 182.171 193.135 182.587 192.869 182.96C192.613 183.333 192.223 183.627 191.701 183.84C191.189 184.053 190.575 184.16 189.861 184.16Z" fill="#95A1BB"/>
</g>
<defs>
<clipPath id="clip0_0_344">
<rect width="260" height="260" fill="white"/>
</clipPath>
</defs>
</svg>
